<svg xmlns="http://www.w3.org/2000/svg" xmlns:xlink="http://www.w3.org/1999/xlink" viewBox="0 0 20 15"><path d="M 1.442 2.813 L 17.788 2.813 C 18.585 2.813 19.231 2.183 19.231 1.406 C 19.231 0.629 18.585 0 17.788 0 L 1.442 0 C 0.646 0 0 0.629 0 1.406 C 0 2.183 0.646 2.813 1.442 2.813 Z" transform="translate(0.385 6.469) rotate(-30 9.615 1.406)" fill="rgb(248,255,232)"></path><path d="" fill="rgba(0,170,255,0.5)" stroke="#0AF"></path><path d="M 17.788 0 L 1.442 0 C 0.646 0 0 0.629 0 1.406 C 0 2.183 0.646 2.813 1.442 2.813 L 17.788 2.813 C 18.585 2.813 19.231 2.183 19.231 1.406 C 19.231 0.629 18.585 0 17.788 0 Z" transform="translate(0.385 6.719) rotate(30 9.615 1.406)" fill="rgb(248,255,232)"></path></svg>