<svg xmlns="http://www.w3.org/2000/svg" xmlns:xlink="http://www.w3.org/1999/xlink" viewBox="0 0 20 20"><path d="M 15 2.5 L 5 2.5 C 4.337 2.5 3.701 2.763 3.232 3.232 C 2.763 3.701 2.5 4.337 2.5 5 L 2.5 15 C 2.5 15.663 2.763 16.299 3.232 16.768 C 3.701 17.237 4.337 17.5 5 17.5 L 15 17.5 C 15.663 17.5 16.299 17.237 16.768 16.768 C 17.237 16.299 17.5 15.663 17.5 15 L 17.5 5 C 17.5 4.337 17.237 3.701 16.768 3.232 C 16.299 2.763 15.663 2.5 15 2.5 Z M 15.833 15 C 15.833 15.221 15.745 15.433 15.589 15.589 C 15.433 15.745 15.221 15.833 15 15.833 L 5 15.833 C 4.779 15.833 4.567 15.745 4.411 15.589 C 4.254 15.433 4.167 15.221 4.167 15 L 4.167 5 C 4.167 4.779 4.254 4.567 4.411 4.411 C 4.567 4.254 4.779 4.167 5 4.167 L 15 4.167 C 15.221 4.167 15.433 4.254 15.589 4.411 C 15.745 4.567 15.833 4.779 15.833 5 Z" fill="rgb(35,31,32)"></path><path d="" fill="rgba(0,170,255,0.5)" stroke="#0AF"></path></svg>