<svg xmlns="http://www.w3.org/2000/svg" xmlns:xlink="http://www.w3.org/1999/xlink" viewBox="0 0 20 20"><path d="M 15 2.5 L 5 2.5 C 4.337 2.5 3.701 2.763 3.232 3.232 C 2.763 3.701 2.5 4.337 2.5 5 L 2.5 15 C 2.5 15.663 2.763 16.299 3.232 16.768 C 3.701 17.237 4.337 17.5 5 17.5 L 15 17.5 C 15.663 17.5 16.299 17.237 16.768 16.768 C 17.237 16.299 17.5 15.663 17.5 15 L 17.5 5 C 17.5 4.337 17.237 3.701 16.768 3.232 C 16.299 2.763 15.663 2.5 15 2.5 Z M 15.833 15 C 15.833 15.221 15.745 15.433 15.589 15.589 C 15.433 15.745 15.221 15.833 15 15.833 L 5 15.833 C 4.779 15.833 4.567 15.745 4.411 15.589 C 4.254 15.433 4.167 15.221 4.167 15 L 4.167 5 C 4.167 4.779 4.254 4.567 4.411 4.411 C 4.567 4.254 4.779 4.167 5 4.167 L 15 4.167 C 15.221 4.167 15.433 4.254 15.589 4.411 C 15.745 4.567 15.833 4.779 15.833 5 Z" fill="rgb(35,31,32)"></path><path d="M 12.25 6.992 L 9.1 11.158 L 7.742 9.4 C 7.606 9.225 7.406 9.112 7.186 9.085 C 6.967 9.057 6.745 9.118 6.571 9.254 C 6.396 9.39 6.283 9.59 6.255 9.809 C 6.228 10.029 6.289 10.25 6.425 10.425 L 8.45 13.017 C 8.528 13.116 8.629 13.196 8.743 13.251 C 8.857 13.306 8.982 13.334 9.108 13.333 C 9.236 13.333 9.361 13.304 9.475 13.247 C 9.589 13.191 9.689 13.109 9.767 13.008 L 13.575 8.008 C 13.71 7.832 13.769 7.608 13.739 7.388 C 13.71 7.168 13.594 6.968 13.417 6.833 C 13.24 6.699 13.017 6.639 12.796 6.669 C 12.576 6.699 12.377 6.815 12.242 6.992 Z" fill="rgb(35,31,32)"></path></svg>