<svg xmlns="http://www.w3.org/2000/svg" xmlns:xlink="http://www.w3.org/1999/xlink" viewBox="0 0 20 15"><path d="M 1.827 3.281 L 18.173 3.281 C 18.97 3.281 19.615 2.652 19.615 1.875 C 19.615 1.098 18.97 0.469 18.173 0.469 L 1.827 0.469 C 1.03 0.469 0.385 1.098 0.385 1.875 C 0.385 2.652 1.03 3.281 1.827 3.281 Z" fill="rgb(248,255,232)"></path><path d="M 18.173 6.094 L 1.827 6.094 C 1.03 6.094 0.385 6.723 0.385 7.5 C 0.385 8.277 1.03 8.906 1.827 8.906 L 18.173 8.906 C 18.97 8.906 19.615 8.277 19.615 7.5 C 19.615 6.723 18.97 6.094 18.173 6.094 Z" fill="rgb(248,255,232)"></path><path d="M 18.173 11.719 L 1.827 11.719 C 1.03 11.719 0.385 12.348 0.385 13.125 C 0.385 13.902 1.03 14.531 1.827 14.531 L 18.173 14.531 C 18.97 14.531 19.615 13.902 19.615 13.125 C 19.615 12.348 18.97 11.719 18.173 11.719 Z" fill="rgb(248,255,232)"></path></svg>