<svg xmlns="http://www.w3.org/2000/svg" xmlns:xlink="http://www.w3.org/1999/xlink" viewBox="0 0 50 50"><g id="ss1500508639_1"><path d="M 0 50 L 0 0 L 50 0 L 50 50 Z" fill="transparent"></path><path d="M 38.018 0 L 11.982 0 C 5.361 0 0 5.361 0 11.982 L 0 38.018 C 0 44.639 5.361 50 11.982 50 L 38.018 50 C 44.639 50 50 44.639 50 38.018 L 50 11.982 C 50 5.361 44.639 0 38.018 0 Z M 38.037 25 C 38.037 27.07 36.357 28.76 34.277 28.76 L 28.76 28.76 L 28.76 34.277 C 28.76 36.348 27.08 38.037 25.01 38.037 C 22.94 38.037 21.25 36.357 21.25 34.277 L 21.25 28.76 L 15.723 28.76 C 13.652 28.76 11.963 27.08 11.963 25.01 C 11.963 22.94 13.643 21.25 15.723 21.25 L 21.25 21.25 L 21.25 15.723 C 21.25 13.652 22.93 11.963 25 11.963 C 27.07 11.963 28.76 13.643 28.76 15.723 L 28.76 21.25 L 34.277 21.25 C 36.348 21.24 38.037 22.93 38.037 25 Z" fill="rgb(15,44,35)"></path></g></svg>